<?xml version="1.0" encoding="UTF-8"?>
<svg xmlns="http://www.w3.org/2000/svg" xmlns:xlink="http://www.w3.org/1999/xlink" width="512px" height="512px" viewBox="0 0 512 512" version="1.1">
<g id="surface1">
<path style=" stroke:none;fill-rule:nonzero;fill:rgb(48.627451%,48.627451%,48.627451%);fill-opacity:1;" d="M 224 0 L 256 0 L 256 32 L 224 32 Z M 224 0 "/>
<path style=" stroke:none;fill-rule:nonzero;fill:rgb(48.627451%,48.627451%,48.627451%);fill-opacity:1;" d="M 256 0 L 288 0 L 288 32 L 256 32 Z M 256 0 "/>
<path style=" stroke:none;fill-rule:nonzero;fill:rgb(48.627451%,48.627451%,48.627451%);fill-opacity:1;" d="M 160 32 L 192 32 L 192 64 L 160 64 Z M 160 32 "/>
<path style=" stroke:none;fill-rule:nonzero;fill:rgb(48.627451%,48.627451%,48.627451%);fill-opacity:1;" d="M 192 32 L 224 32 L 224 64 L 192 64 Z M 192 32 "/>
<path style=" stroke:none;fill-rule:nonzero;fill:rgb(25.098041%,25.098041%,25.098041%);fill-opacity:1;" d="M 224 32 L 256 32 L 256 64 L 224 64 Z M 224 32 "/>
<path style=" stroke:none;fill-rule:nonzero;fill:rgb(25.098041%,25.098041%,25.098041%);fill-opacity:1;" d="M 256 32 L 288 32 L 288 64 L 256 64 Z M 256 32 "/>
<path style=" stroke:none;fill-rule:nonzero;fill:rgb(48.627451%,48.627451%,48.627451%);fill-opacity:1;" d="M 288 32 L 320 32 L 320 64 L 288 64 Z M 288 32 "/>
<path style=" stroke:none;fill-rule:nonzero;fill:rgb(48.627451%,48.627451%,48.627451%);fill-opacity:1;" d="M 320 32 L 352 32 L 352 64 L 320 64 Z M 320 32 "/>
<path style=" stroke:none;fill-rule:nonzero;fill:rgb(48.627451%,48.627451%,48.627451%);fill-opacity:1;" d="M 96 64 L 128 64 L 128 96 L 96 96 Z M 96 64 "/>
<path style=" stroke:none;fill-rule:nonzero;fill:rgb(48.627451%,48.627451%,48.627451%);fill-opacity:1;" d="M 128 64 L 160 64 L 160 96 L 128 96 Z M 128 64 "/>
<path style=" stroke:none;fill-rule:nonzero;fill:rgb(25.098041%,25.098041%,25.098041%);fill-opacity:1;" d="M 160 64 L 192 64 L 192 96 L 160 96 Z M 160 64 "/>
<path style=" stroke:none;fill-rule:nonzero;fill:rgb(25.098041%,25.098041%,25.098041%);fill-opacity:1;" d="M 192 64 L 224 64 L 224 96 L 192 96 Z M 192 64 "/>
<path style=" stroke:none;fill-rule:nonzero;fill:rgb(25.098041%,25.098041%,25.098041%);fill-opacity:1;" d="M 224 64 L 256 64 L 256 96 L 224 96 Z M 224 64 "/>
<path style=" stroke:none;fill-rule:nonzero;fill:rgb(25.098041%,25.098041%,25.098041%);fill-opacity:1;" d="M 256 64 L 288 64 L 288 96 L 256 96 Z M 256 64 "/>
<path style=" stroke:none;fill-rule:nonzero;fill:rgb(25.098041%,25.098041%,25.098041%);fill-opacity:1;" d="M 288 64 L 320 64 L 320 96 L 288 96 Z M 288 64 "/>
<path style=" stroke:none;fill-rule:nonzero;fill:rgb(25.098041%,25.098041%,25.098041%);fill-opacity:1;" d="M 320 64 L 352 64 L 352 96 L 320 96 Z M 320 64 "/>
<path style=" stroke:none;fill-rule:nonzero;fill:rgb(48.627451%,48.627451%,48.627451%);fill-opacity:1;" d="M 352 64 L 384 64 L 384 96 L 352 96 Z M 352 64 "/>
<path style=" stroke:none;fill-rule:nonzero;fill:rgb(48.627451%,48.627451%,48.627451%);fill-opacity:1;" d="M 384 64 L 416 64 L 416 96 L 384 96 Z M 384 64 "/>
<path style=" stroke:none;fill-rule:nonzero;fill:rgb(48.627451%,48.627451%,48.627451%);fill-opacity:1;" d="M 64 96 L 96 96 L 96 128 L 64 128 Z M 64 96 "/>
<path style=" stroke:none;fill-rule:nonzero;fill:rgb(25.098041%,25.098041%,25.098041%);fill-opacity:1;" d="M 96 96 L 128 96 L 128 128 L 96 128 Z M 96 96 "/>
<path style=" stroke:none;fill-rule:nonzero;fill:rgb(25.098041%,25.098041%,25.098041%);fill-opacity:1;" d="M 128 96 L 160 96 L 160 128 L 128 128 Z M 128 96 "/>
<path style=" stroke:none;fill-rule:nonzero;fill:rgb(25.098041%,25.098041%,25.098041%);fill-opacity:1;" d="M 160 96 L 192 96 L 192 128 L 160 128 Z M 160 96 "/>
<path style=" stroke:none;fill-rule:nonzero;fill:rgb(25.098041%,25.098041%,25.098041%);fill-opacity:1;" d="M 192 96 L 224 96 L 224 128 L 192 128 Z M 192 96 "/>
<path style=" stroke:none;fill-rule:nonzero;fill:rgb(25.098041%,25.098041%,25.098041%);fill-opacity:1;" d="M 224 96 L 256 96 L 256 128 L 224 128 Z M 224 96 "/>
<path style=" stroke:none;fill-rule:nonzero;fill:rgb(25.098041%,25.098041%,25.098041%);fill-opacity:1;" d="M 256 96 L 288 96 L 288 128 L 256 128 Z M 256 96 "/>
<path style=" stroke:none;fill-rule:nonzero;fill:rgb(25.098041%,25.098041%,25.098041%);fill-opacity:1;" d="M 288 96 L 320 96 L 320 128 L 288 128 Z M 288 96 "/>
<path style=" stroke:none;fill-rule:nonzero;fill:rgb(25.098041%,25.098041%,25.098041%);fill-opacity:1;" d="M 320 96 L 352 96 L 352 128 L 320 128 Z M 320 96 "/>
<path style=" stroke:none;fill-rule:nonzero;fill:rgb(25.098041%,25.098041%,25.098041%);fill-opacity:1;" d="M 352 96 L 384 96 L 384 128 L 352 128 Z M 352 96 "/>
<path style=" stroke:none;fill-rule:nonzero;fill:rgb(25.098041%,25.098041%,25.098041%);fill-opacity:1;" d="M 384 96 L 416 96 L 416 128 L 384 128 Z M 384 96 "/>
<path style=" stroke:none;fill-rule:nonzero;fill:rgb(48.627451%,48.627451%,48.627451%);fill-opacity:1;" d="M 416 96 L 448 96 L 448 128 L 416 128 Z M 416 96 "/>
<path style=" stroke:none;fill-rule:nonzero;fill:rgb(48.627451%,48.627451%,48.627451%);fill-opacity:1;" d="M 64 128 L 96 128 L 96 160 L 64 160 Z M 64 128 "/>
<path style=" stroke:none;fill-rule:nonzero;fill:rgb(25.098041%,25.098041%,25.098041%);fill-opacity:1;" d="M 96 128 L 128 128 L 128 160 L 96 160 Z M 96 128 "/>
<path style=" stroke:none;fill-rule:nonzero;fill:rgb(25.098041%,25.098041%,25.098041%);fill-opacity:1;" d="M 128 128 L 160 128 L 160 160 L 128 160 Z M 128 128 "/>
<path style=" stroke:none;fill-rule:nonzero;fill:rgb(25.098041%,25.098041%,25.098041%);fill-opacity:1;" d="M 160 128 L 192 128 L 192 160 L 160 160 Z M 160 128 "/>
<path style=" stroke:none;fill-rule:nonzero;fill:rgb(25.098041%,25.098041%,25.098041%);fill-opacity:1;" d="M 192 128 L 224 128 L 224 160 L 192 160 Z M 192 128 "/>
<path style=" stroke:none;fill-rule:nonzero;fill:rgb(25.098041%,25.098041%,25.098041%);fill-opacity:1;" d="M 224 128 L 256 128 L 256 160 L 224 160 Z M 224 128 "/>
<path style=" stroke:none;fill-rule:nonzero;fill:rgb(25.098041%,25.098041%,25.098041%);fill-opacity:1;" d="M 256 128 L 288 128 L 288 160 L 256 160 Z M 256 128 "/>
<path style=" stroke:none;fill-rule:nonzero;fill:rgb(25.098041%,25.098041%,25.098041%);fill-opacity:1;" d="M 288 128 L 320 128 L 320 160 L 288 160 Z M 288 128 "/>
<path style=" stroke:none;fill-rule:nonzero;fill:rgb(25.098041%,25.098041%,25.098041%);fill-opacity:1;" d="M 320 128 L 352 128 L 352 160 L 320 160 Z M 320 128 "/>
<path style=" stroke:none;fill-rule:nonzero;fill:rgb(25.098041%,25.098041%,25.098041%);fill-opacity:1;" d="M 352 128 L 384 128 L 384 160 L 352 160 Z M 352 128 "/>
<path style=" stroke:none;fill-rule:nonzero;fill:rgb(25.098041%,25.098041%,25.098041%);fill-opacity:1;" d="M 384 128 L 416 128 L 416 160 L 384 160 Z M 384 128 "/>
<path style=" stroke:none;fill-rule:nonzero;fill:rgb(16.078432%,16.078432%,16.078432%);fill-opacity:1;" d="M 416 128 L 448 128 L 448 160 L 416 160 Z M 416 128 "/>
<path style=" stroke:none;fill-rule:nonzero;fill:rgb(48.627451%,48.627451%,48.627451%);fill-opacity:1;" d="M 32 160 L 64 160 L 64 192 L 32 192 Z M 32 160 "/>
<path style=" stroke:none;fill-rule:nonzero;fill:rgb(25.098041%,25.098041%,25.098041%);fill-opacity:1;" d="M 64 160 L 96 160 L 96 192 L 64 192 Z M 64 160 "/>
<path style=" stroke:none;fill-rule:nonzero;fill:rgb(25.098041%,25.098041%,25.098041%);fill-opacity:1;" d="M 96 160 L 128 160 L 128 192 L 96 192 Z M 96 160 "/>
<path style=" stroke:none;fill-rule:nonzero;fill:rgb(25.098041%,25.098041%,25.098041%);fill-opacity:1;" d="M 128 160 L 160 160 L 160 192 L 128 192 Z M 128 160 "/>
<path style=" stroke:none;fill-rule:nonzero;fill:rgb(25.098041%,25.098041%,25.098041%);fill-opacity:1;" d="M 160 160 L 192 160 L 192 192 L 160 192 Z M 160 160 "/>
<path style=" stroke:none;fill-rule:nonzero;fill:rgb(25.098041%,25.098041%,25.098041%);fill-opacity:1;" d="M 192 160 L 224 160 L 224 192 L 192 192 Z M 192 160 "/>
<path style=" stroke:none;fill-rule:nonzero;fill:rgb(25.098041%,25.098041%,25.098041%);fill-opacity:1;" d="M 224 160 L 256 160 L 256 192 L 224 192 Z M 224 160 "/>
<path style=" stroke:none;fill-rule:nonzero;fill:rgb(25.098041%,25.098041%,25.098041%);fill-opacity:1;" d="M 256 160 L 288 160 L 288 192 L 256 192 Z M 256 160 "/>
<path style=" stroke:none;fill-rule:nonzero;fill:rgb(25.098041%,25.098041%,25.098041%);fill-opacity:1;" d="M 288 160 L 320 160 L 320 192 L 288 192 Z M 288 160 "/>
<path style=" stroke:none;fill-rule:nonzero;fill:rgb(25.098041%,25.098041%,25.098041%);fill-opacity:1;" d="M 320 160 L 352 160 L 352 192 L 320 192 Z M 320 160 "/>
<path style=" stroke:none;fill-rule:nonzero;fill:rgb(25.098041%,25.098041%,25.098041%);fill-opacity:1;" d="M 352 160 L 384 160 L 384 192 L 352 192 Z M 352 160 "/>
<path style=" stroke:none;fill-rule:nonzero;fill:rgb(25.098041%,25.098041%,25.098041%);fill-opacity:1;" d="M 384 160 L 416 160 L 416 192 L 384 192 Z M 384 160 "/>
<path style=" stroke:none;fill-rule:nonzero;fill:rgb(25.098041%,25.098041%,25.098041%);fill-opacity:1;" d="M 416 160 L 448 160 L 448 192 L 416 192 Z M 416 160 "/>
<path style=" stroke:none;fill-rule:nonzero;fill:rgb(48.627451%,48.627451%,48.627451%);fill-opacity:1;" d="M 448 160 L 480 160 L 480 192 L 448 192 Z M 448 160 "/>
<path style=" stroke:none;fill-rule:nonzero;fill:rgb(48.627451%,48.627451%,48.627451%);fill-opacity:1;" d="M 32 192 L 64 192 L 64 224 L 32 224 Z M 32 192 "/>
<path style=" stroke:none;fill-rule:nonzero;fill:rgb(25.098041%,25.098041%,25.098041%);fill-opacity:1;" d="M 64 192 L 96 192 L 96 224 L 64 224 Z M 64 192 "/>
<path style=" stroke:none;fill-rule:nonzero;fill:rgb(25.098041%,25.098041%,25.098041%);fill-opacity:1;" d="M 96 192 L 128 192 L 128 224 L 96 224 Z M 96 192 "/>
<path style=" stroke:none;fill-rule:nonzero;fill:rgb(25.098041%,25.098041%,25.098041%);fill-opacity:1;" d="M 128 192 L 160 192 L 160 224 L 128 224 Z M 128 192 "/>
<path style=" stroke:none;fill-rule:nonzero;fill:rgb(25.098041%,25.098041%,25.098041%);fill-opacity:1;" d="M 160 192 L 192 192 L 192 224 L 160 224 Z M 160 192 "/>
<path style=" stroke:none;fill-rule:nonzero;fill:rgb(25.098041%,25.098041%,25.098041%);fill-opacity:1;" d="M 192 192 L 224 192 L 224 224 L 192 224 Z M 192 192 "/>
<path style=" stroke:none;fill-rule:nonzero;fill:rgb(16.078432%,16.078432%,16.078432%);fill-opacity:1;" d="M 224 192 L 256 192 L 256 224 L 224 224 Z M 224 192 "/>
<path style=" stroke:none;fill-rule:nonzero;fill:rgb(16.078432%,16.078432%,16.078432%);fill-opacity:1;" d="M 256 192 L 288 192 L 288 224 L 256 224 Z M 256 192 "/>
<path style=" stroke:none;fill-rule:nonzero;fill:rgb(25.098041%,25.098041%,25.098041%);fill-opacity:1;" d="M 288 192 L 320 192 L 320 224 L 288 224 Z M 288 192 "/>
<path style=" stroke:none;fill-rule:nonzero;fill:rgb(25.098041%,25.098041%,25.098041%);fill-opacity:1;" d="M 320 192 L 352 192 L 352 224 L 320 224 Z M 320 192 "/>
<path style=" stroke:none;fill-rule:nonzero;fill:rgb(25.098041%,25.098041%,25.098041%);fill-opacity:1;" d="M 352 192 L 384 192 L 384 224 L 352 224 Z M 352 192 "/>
<path style=" stroke:none;fill-rule:nonzero;fill:rgb(25.098041%,25.098041%,25.098041%);fill-opacity:1;" d="M 384 192 L 416 192 L 416 224 L 384 224 Z M 384 192 "/>
<path style=" stroke:none;fill-rule:nonzero;fill:rgb(25.098041%,25.098041%,25.098041%);fill-opacity:1;" d="M 416 192 L 448 192 L 448 224 L 416 224 Z M 416 192 "/>
<path style=" stroke:none;fill-rule:nonzero;fill:rgb(16.078432%,16.078432%,16.078432%);fill-opacity:1;" d="M 448 192 L 480 192 L 480 224 L 448 224 Z M 448 192 "/>
<path style=" stroke:none;fill-rule:nonzero;fill:rgb(48.627451%,48.627451%,48.627451%);fill-opacity:1;" d="M 0 224 L 32 224 L 32 256 L 0 256 Z M 0 224 "/>
<path style=" stroke:none;fill-rule:nonzero;fill:rgb(25.098041%,25.098041%,25.098041%);fill-opacity:1;" d="M 32 224 L 64 224 L 64 256 L 32 256 Z M 32 224 "/>
<path style=" stroke:none;fill-rule:nonzero;fill:rgb(25.098041%,25.098041%,25.098041%);fill-opacity:1;" d="M 64 224 L 96 224 L 96 256 L 64 256 Z M 64 224 "/>
<path style=" stroke:none;fill-rule:nonzero;fill:rgb(25.098041%,25.098041%,25.098041%);fill-opacity:1;" d="M 96 224 L 128 224 L 128 256 L 96 256 Z M 96 224 "/>
<path style=" stroke:none;fill-rule:nonzero;fill:rgb(25.098041%,25.098041%,25.098041%);fill-opacity:1;" d="M 128 224 L 160 224 L 160 256 L 128 256 Z M 128 224 "/>
<path style=" stroke:none;fill-rule:nonzero;fill:rgb(25.098041%,25.098041%,25.098041%);fill-opacity:1;" d="M 160 224 L 192 224 L 192 256 L 160 256 Z M 160 224 "/>
<path style=" stroke:none;fill-rule:nonzero;fill:rgb(16.078432%,16.078432%,16.078432%);fill-opacity:1;" d="M 192 224 L 224 224 L 224 256 L 192 256 Z M 192 224 "/>
<path style=" stroke:none;fill-rule:nonzero;fill:rgb(100%,0%,0%);fill-opacity:1;" d="M 224 224 L 256 224 L 256 256 L 224 256 Z M 224 224 "/>
<path style=" stroke:none;fill-rule:nonzero;fill:rgb(16.078432%,16.078432%,16.078432%);fill-opacity:1;" d="M 256 224 L 288 224 L 288 256 L 256 256 Z M 256 224 "/>
<path style=" stroke:none;fill-rule:nonzero;fill:rgb(16.078432%,16.078432%,16.078432%);fill-opacity:1;" d="M 288 224 L 320 224 L 320 256 L 288 256 Z M 288 224 "/>
<path style=" stroke:none;fill-rule:nonzero;fill:rgb(25.098041%,25.098041%,25.098041%);fill-opacity:1;" d="M 320 224 L 352 224 L 352 256 L 320 256 Z M 320 224 "/>
<path style=" stroke:none;fill-rule:nonzero;fill:rgb(25.098041%,25.098041%,25.098041%);fill-opacity:1;" d="M 352 224 L 384 224 L 384 256 L 352 256 Z M 352 224 "/>
<path style=" stroke:none;fill-rule:nonzero;fill:rgb(25.098041%,25.098041%,25.098041%);fill-opacity:1;" d="M 384 224 L 416 224 L 416 256 L 384 256 Z M 384 224 "/>
<path style=" stroke:none;fill-rule:nonzero;fill:rgb(25.098041%,25.098041%,25.098041%);fill-opacity:1;" d="M 416 224 L 448 224 L 448 256 L 416 256 Z M 416 224 "/>
<path style=" stroke:none;fill-rule:nonzero;fill:rgb(25.098041%,25.098041%,25.098041%);fill-opacity:1;" d="M 448 224 L 480 224 L 480 256 L 448 256 Z M 448 224 "/>
<path style=" stroke:none;fill-rule:nonzero;fill:rgb(48.627451%,48.627451%,48.627451%);fill-opacity:1;" d="M 480 224 L 512 224 L 512 256 L 480 256 Z M 480 224 "/>
<path style=" stroke:none;fill-rule:nonzero;fill:rgb(48.627451%,48.627451%,48.627451%);fill-opacity:1;" d="M 0 256 L 32 256 L 32 288 L 0 288 Z M 0 256 "/>
<path style=" stroke:none;fill-rule:nonzero;fill:rgb(25.098041%,25.098041%,25.098041%);fill-opacity:1;" d="M 32 256 L 64 256 L 64 288 L 32 288 Z M 32 256 "/>
<path style=" stroke:none;fill-rule:nonzero;fill:rgb(25.098041%,25.098041%,25.098041%);fill-opacity:1;" d="M 64 256 L 96 256 L 96 288 L 64 288 Z M 64 256 "/>
<path style=" stroke:none;fill-rule:nonzero;fill:rgb(25.098041%,25.098041%,25.098041%);fill-opacity:1;" d="M 96 256 L 128 256 L 128 288 L 96 288 Z M 96 256 "/>
<path style=" stroke:none;fill-rule:nonzero;fill:rgb(25.098041%,25.098041%,25.098041%);fill-opacity:1;" d="M 128 256 L 160 256 L 160 288 L 128 288 Z M 128 256 "/>
<path style=" stroke:none;fill-rule:nonzero;fill:rgb(25.098041%,25.098041%,25.098041%);fill-opacity:1;" d="M 160 256 L 192 256 L 192 288 L 160 288 Z M 160 256 "/>
<path style=" stroke:none;fill-rule:nonzero;fill:rgb(16.078432%,16.078432%,16.078432%);fill-opacity:1;" d="M 192 256 L 224 256 L 224 288 L 192 288 Z M 192 256 "/>
<path style=" stroke:none;fill-rule:nonzero;fill:rgb(16.078432%,16.078432%,16.078432%);fill-opacity:1;" d="M 224 256 L 256 256 L 256 288 L 224 288 Z M 224 256 "/>
<path style=" stroke:none;fill-rule:nonzero;fill:rgb(16.078432%,16.078432%,16.078432%);fill-opacity:1;" d="M 256 256 L 288 256 L 288 288 L 256 288 Z M 256 256 "/>
<path style=" stroke:none;fill-rule:nonzero;fill:rgb(16.078432%,16.078432%,16.078432%);fill-opacity:1;" d="M 288 256 L 320 256 L 320 288 L 288 288 Z M 288 256 "/>
<path style=" stroke:none;fill-rule:nonzero;fill:rgb(25.098041%,25.098041%,25.098041%);fill-opacity:1;" d="M 320 256 L 352 256 L 352 288 L 320 288 Z M 320 256 "/>
<path style=" stroke:none;fill-rule:nonzero;fill:rgb(25.098041%,25.098041%,25.098041%);fill-opacity:1;" d="M 352 256 L 384 256 L 384 288 L 352 288 Z M 352 256 "/>
<path style=" stroke:none;fill-rule:nonzero;fill:rgb(25.098041%,25.098041%,25.098041%);fill-opacity:1;" d="M 384 256 L 416 256 L 416 288 L 384 288 Z M 384 256 "/>
<path style=" stroke:none;fill-rule:nonzero;fill:rgb(25.098041%,25.098041%,25.098041%);fill-opacity:1;" d="M 416 256 L 448 256 L 448 288 L 416 288 Z M 416 256 "/>
<path style=" stroke:none;fill-rule:nonzero;fill:rgb(25.098041%,25.098041%,25.098041%);fill-opacity:1;" d="M 448 256 L 480 256 L 480 288 L 448 288 Z M 448 256 "/>
<path style=" stroke:none;fill-rule:nonzero;fill:rgb(16.078432%,16.078432%,16.078432%);fill-opacity:1;" d="M 480 256 L 512 256 L 512 288 L 480 288 Z M 480 256 "/>
<path style=" stroke:none;fill-rule:nonzero;fill:rgb(48.627451%,48.627451%,48.627451%);fill-opacity:1;" d="M 32 288 L 64 288 L 64 320 L 32 320 Z M 32 288 "/>
<path style=" stroke:none;fill-rule:nonzero;fill:rgb(25.098041%,25.098041%,25.098041%);fill-opacity:1;" d="M 64 288 L 96 288 L 96 320 L 64 320 Z M 64 288 "/>
<path style=" stroke:none;fill-rule:nonzero;fill:rgb(25.098041%,25.098041%,25.098041%);fill-opacity:1;" d="M 96 288 L 128 288 L 128 320 L 96 320 Z M 96 288 "/>
<path style=" stroke:none;fill-rule:nonzero;fill:rgb(25.098041%,25.098041%,25.098041%);fill-opacity:1;" d="M 128 288 L 160 288 L 160 320 L 128 320 Z M 128 288 "/>
<path style=" stroke:none;fill-rule:nonzero;fill:rgb(25.098041%,25.098041%,25.098041%);fill-opacity:1;" d="M 160 288 L 192 288 L 192 320 L 160 320 Z M 160 288 "/>
<path style=" stroke:none;fill-rule:nonzero;fill:rgb(25.098041%,25.098041%,25.098041%);fill-opacity:1;" d="M 192 288 L 224 288 L 224 320 L 192 320 Z M 192 288 "/>
<path style=" stroke:none;fill-rule:nonzero;fill:rgb(16.078432%,16.078432%,16.078432%);fill-opacity:1;" d="M 224 288 L 256 288 L 256 320 L 224 320 Z M 224 288 "/>
<path style=" stroke:none;fill-rule:nonzero;fill:rgb(16.078432%,16.078432%,16.078432%);fill-opacity:1;" d="M 256 288 L 288 288 L 288 320 L 256 320 Z M 256 288 "/>
<path style=" stroke:none;fill-rule:nonzero;fill:rgb(25.098041%,25.098041%,25.098041%);fill-opacity:1;" d="M 288 288 L 320 288 L 320 320 L 288 320 Z M 288 288 "/>
<path style=" stroke:none;fill-rule:nonzero;fill:rgb(25.098041%,25.098041%,25.098041%);fill-opacity:1;" d="M 320 288 L 352 288 L 352 320 L 320 320 Z M 320 288 "/>
<path style=" stroke:none;fill-rule:nonzero;fill:rgb(25.098041%,25.098041%,25.098041%);fill-opacity:1;" d="M 352 288 L 384 288 L 384 320 L 352 320 Z M 352 288 "/>
<path style=" stroke:none;fill-rule:nonzero;fill:rgb(25.098041%,25.098041%,25.098041%);fill-opacity:1;" d="M 384 288 L 416 288 L 416 320 L 384 320 Z M 384 288 "/>
<path style=" stroke:none;fill-rule:nonzero;fill:rgb(25.098041%,25.098041%,25.098041%);fill-opacity:1;" d="M 416 288 L 448 288 L 448 320 L 416 320 Z M 416 288 "/>
<path style=" stroke:none;fill-rule:nonzero;fill:rgb(16.078432%,16.078432%,16.078432%);fill-opacity:1;" d="M 448 288 L 480 288 L 480 320 L 448 320 Z M 448 288 "/>
<path style=" stroke:none;fill-rule:nonzero;fill:rgb(48.627451%,48.627451%,48.627451%);fill-opacity:1;" d="M 32 320 L 64 320 L 64 352 L 32 352 Z M 32 320 "/>
<path style=" stroke:none;fill-rule:nonzero;fill:rgb(25.098041%,25.098041%,25.098041%);fill-opacity:1;" d="M 64 320 L 96 320 L 96 352 L 64 352 Z M 64 320 "/>
<path style=" stroke:none;fill-rule:nonzero;fill:rgb(25.098041%,25.098041%,25.098041%);fill-opacity:1;" d="M 96 320 L 128 320 L 128 352 L 96 352 Z M 96 320 "/>
<path style=" stroke:none;fill-rule:nonzero;fill:rgb(25.098041%,25.098041%,25.098041%);fill-opacity:1;" d="M 128 320 L 160 320 L 160 352 L 128 352 Z M 128 320 "/>
<path style=" stroke:none;fill-rule:nonzero;fill:rgb(25.098041%,25.098041%,25.098041%);fill-opacity:1;" d="M 160 320 L 192 320 L 192 352 L 160 352 Z M 160 320 "/>
<path style=" stroke:none;fill-rule:nonzero;fill:rgb(25.098041%,25.098041%,25.098041%);fill-opacity:1;" d="M 192 320 L 224 320 L 224 352 L 192 352 Z M 192 320 "/>
<path style=" stroke:none;fill-rule:nonzero;fill:rgb(25.098041%,25.098041%,25.098041%);fill-opacity:1;" d="M 224 320 L 256 320 L 256 352 L 224 352 Z M 224 320 "/>
<path style=" stroke:none;fill-rule:nonzero;fill:rgb(25.098041%,25.098041%,25.098041%);fill-opacity:1;" d="M 256 320 L 288 320 L 288 352 L 256 352 Z M 256 320 "/>
<path style=" stroke:none;fill-rule:nonzero;fill:rgb(25.098041%,25.098041%,25.098041%);fill-opacity:1;" d="M 288 320 L 320 320 L 320 352 L 288 352 Z M 288 320 "/>
<path style=" stroke:none;fill-rule:nonzero;fill:rgb(25.098041%,25.098041%,25.098041%);fill-opacity:1;" d="M 320 320 L 352 320 L 352 352 L 320 352 Z M 320 320 "/>
<path style=" stroke:none;fill-rule:nonzero;fill:rgb(25.098041%,25.098041%,25.098041%);fill-opacity:1;" d="M 352 320 L 384 320 L 384 352 L 352 352 Z M 352 320 "/>
<path style=" stroke:none;fill-rule:nonzero;fill:rgb(25.098041%,25.098041%,25.098041%);fill-opacity:1;" d="M 384 320 L 416 320 L 416 352 L 384 352 Z M 384 320 "/>
<path style=" stroke:none;fill-rule:nonzero;fill:rgb(25.098041%,25.098041%,25.098041%);fill-opacity:1;" d="M 416 320 L 448 320 L 448 352 L 416 352 Z M 416 320 "/>
<path style=" stroke:none;fill-rule:nonzero;fill:rgb(16.078432%,16.078432%,16.078432%);fill-opacity:1;" d="M 448 320 L 480 320 L 480 352 L 448 352 Z M 448 320 "/>
<path style=" stroke:none;fill-rule:nonzero;fill:rgb(48.627451%,48.627451%,48.627451%);fill-opacity:1;" d="M 64 352 L 96 352 L 96 384 L 64 384 Z M 64 352 "/>
<path style=" stroke:none;fill-rule:nonzero;fill:rgb(25.098041%,25.098041%,25.098041%);fill-opacity:1;" d="M 96 352 L 128 352 L 128 384 L 96 384 Z M 96 352 "/>
<path style=" stroke:none;fill-rule:nonzero;fill:rgb(25.098041%,25.098041%,25.098041%);fill-opacity:1;" d="M 128 352 L 160 352 L 160 384 L 128 384 Z M 128 352 "/>
<path style=" stroke:none;fill-rule:nonzero;fill:rgb(25.098041%,25.098041%,25.098041%);fill-opacity:1;" d="M 160 352 L 192 352 L 192 384 L 160 384 Z M 160 352 "/>
<path style=" stroke:none;fill-rule:nonzero;fill:rgb(25.098041%,25.098041%,25.098041%);fill-opacity:1;" d="M 192 352 L 224 352 L 224 384 L 192 384 Z M 192 352 "/>
<path style=" stroke:none;fill-rule:nonzero;fill:rgb(25.098041%,25.098041%,25.098041%);fill-opacity:1;" d="M 224 352 L 256 352 L 256 384 L 224 384 Z M 224 352 "/>
<path style=" stroke:none;fill-rule:nonzero;fill:rgb(25.098041%,25.098041%,25.098041%);fill-opacity:1;" d="M 256 352 L 288 352 L 288 384 L 256 384 Z M 256 352 "/>
<path style=" stroke:none;fill-rule:nonzero;fill:rgb(25.098041%,25.098041%,25.098041%);fill-opacity:1;" d="M 288 352 L 320 352 L 320 384 L 288 384 Z M 288 352 "/>
<path style=" stroke:none;fill-rule:nonzero;fill:rgb(25.098041%,25.098041%,25.098041%);fill-opacity:1;" d="M 320 352 L 352 352 L 352 384 L 320 384 Z M 320 352 "/>
<path style=" stroke:none;fill-rule:nonzero;fill:rgb(25.098041%,25.098041%,25.098041%);fill-opacity:1;" d="M 352 352 L 384 352 L 384 384 L 352 384 Z M 352 352 "/>
<path style=" stroke:none;fill-rule:nonzero;fill:rgb(25.098041%,25.098041%,25.098041%);fill-opacity:1;" d="M 384 352 L 416 352 L 416 384 L 384 384 Z M 384 352 "/>
<path style=" stroke:none;fill-rule:nonzero;fill:rgb(16.078432%,16.078432%,16.078432%);fill-opacity:1;" d="M 416 352 L 448 352 L 448 384 L 416 384 Z M 416 352 "/>
<path style=" stroke:none;fill-rule:nonzero;fill:rgb(48.627451%,48.627451%,48.627451%);fill-opacity:1;" d="M 64 384 L 96 384 L 96 416 L 64 416 Z M 64 384 "/>
<path style=" stroke:none;fill-rule:nonzero;fill:rgb(25.098041%,25.098041%,25.098041%);fill-opacity:1;" d="M 96 384 L 128 384 L 128 416 L 96 416 Z M 96 384 "/>
<path style=" stroke:none;fill-rule:nonzero;fill:rgb(25.098041%,25.098041%,25.098041%);fill-opacity:1;" d="M 128 384 L 160 384 L 160 416 L 128 416 Z M 128 384 "/>
<path style=" stroke:none;fill-rule:nonzero;fill:rgb(25.098041%,25.098041%,25.098041%);fill-opacity:1;" d="M 160 384 L 192 384 L 192 416 L 160 416 Z M 160 384 "/>
<path style=" stroke:none;fill-rule:nonzero;fill:rgb(25.098041%,25.098041%,25.098041%);fill-opacity:1;" d="M 192 384 L 224 384 L 224 416 L 192 416 Z M 192 384 "/>
<path style=" stroke:none;fill-rule:nonzero;fill:rgb(25.098041%,25.098041%,25.098041%);fill-opacity:1;" d="M 224 384 L 256 384 L 256 416 L 224 416 Z M 224 384 "/>
<path style=" stroke:none;fill-rule:nonzero;fill:rgb(25.098041%,25.098041%,25.098041%);fill-opacity:1;" d="M 256 384 L 288 384 L 288 416 L 256 416 Z M 256 384 "/>
<path style=" stroke:none;fill-rule:nonzero;fill:rgb(25.098041%,25.098041%,25.098041%);fill-opacity:1;" d="M 288 384 L 320 384 L 320 416 L 288 416 Z M 288 384 "/>
<path style=" stroke:none;fill-rule:nonzero;fill:rgb(25.098041%,25.098041%,25.098041%);fill-opacity:1;" d="M 320 384 L 352 384 L 352 416 L 320 416 Z M 320 384 "/>
<path style=" stroke:none;fill-rule:nonzero;fill:rgb(25.098041%,25.098041%,25.098041%);fill-opacity:1;" d="M 352 384 L 384 384 L 384 416 L 352 416 Z M 352 384 "/>
<path style=" stroke:none;fill-rule:nonzero;fill:rgb(25.098041%,25.098041%,25.098041%);fill-opacity:1;" d="M 384 384 L 416 384 L 416 416 L 384 416 Z M 384 384 "/>
<path style=" stroke:none;fill-rule:nonzero;fill:rgb(16.078432%,16.078432%,16.078432%);fill-opacity:1;" d="M 416 384 L 448 384 L 448 416 L 416 416 Z M 416 384 "/>
<path style=" stroke:none;fill-rule:nonzero;fill:rgb(48.627451%,48.627451%,48.627451%);fill-opacity:1;" d="M 96 416 L 128 416 L 128 448 L 96 448 Z M 96 416 "/>
<path style=" stroke:none;fill-rule:nonzero;fill:rgb(16.078432%,16.078432%,16.078432%);fill-opacity:1;" d="M 128 416 L 160 416 L 160 448 L 128 448 Z M 128 416 "/>
<path style=" stroke:none;fill-rule:nonzero;fill:rgb(25.098041%,25.098041%,25.098041%);fill-opacity:1;" d="M 160 416 L 192 416 L 192 448 L 160 448 Z M 160 416 "/>
<path style=" stroke:none;fill-rule:nonzero;fill:rgb(25.098041%,25.098041%,25.098041%);fill-opacity:1;" d="M 192 416 L 224 416 L 224 448 L 192 448 Z M 192 416 "/>
<path style=" stroke:none;fill-rule:nonzero;fill:rgb(25.098041%,25.098041%,25.098041%);fill-opacity:1;" d="M 224 416 L 256 416 L 256 448 L 224 448 Z M 224 416 "/>
<path style=" stroke:none;fill-rule:nonzero;fill:rgb(25.098041%,25.098041%,25.098041%);fill-opacity:1;" d="M 256 416 L 288 416 L 288 448 L 256 448 Z M 256 416 "/>
<path style=" stroke:none;fill-rule:nonzero;fill:rgb(25.098041%,25.098041%,25.098041%);fill-opacity:1;" d="M 288 416 L 320 416 L 320 448 L 288 448 Z M 288 416 "/>
<path style=" stroke:none;fill-rule:nonzero;fill:rgb(25.098041%,25.098041%,25.098041%);fill-opacity:1;" d="M 320 416 L 352 416 L 352 448 L 320 448 Z M 320 416 "/>
<path style=" stroke:none;fill-rule:nonzero;fill:rgb(16.078432%,16.078432%,16.078432%);fill-opacity:1;" d="M 352 416 L 384 416 L 384 448 L 352 448 Z M 352 416 "/>
<path style=" stroke:none;fill-rule:nonzero;fill:rgb(16.078432%,16.078432%,16.078432%);fill-opacity:1;" d="M 384 416 L 416 416 L 416 448 L 384 448 Z M 384 416 "/>
<path style=" stroke:none;fill-rule:nonzero;fill:rgb(48.627451%,48.627451%,48.627451%);fill-opacity:1;" d="M 160 448 L 192 448 L 192 480 L 160 480 Z M 160 448 "/>
<path style=" stroke:none;fill-rule:nonzero;fill:rgb(16.078432%,16.078432%,16.078432%);fill-opacity:1;" d="M 192 448 L 224 448 L 224 480 L 192 480 Z M 192 448 "/>
<path style=" stroke:none;fill-rule:nonzero;fill:rgb(25.098041%,25.098041%,25.098041%);fill-opacity:1;" d="M 224 448 L 256 448 L 256 480 L 224 480 Z M 224 448 "/>
<path style=" stroke:none;fill-rule:nonzero;fill:rgb(25.098041%,25.098041%,25.098041%);fill-opacity:1;" d="M 256 448 L 288 448 L 288 480 L 256 480 Z M 256 448 "/>
<path style=" stroke:none;fill-rule:nonzero;fill:rgb(16.078432%,16.078432%,16.078432%);fill-opacity:1;" d="M 288 448 L 320 448 L 320 480 L 288 480 Z M 288 448 "/>
<path style=" stroke:none;fill-rule:nonzero;fill:rgb(16.078432%,16.078432%,16.078432%);fill-opacity:1;" d="M 320 448 L 352 448 L 352 480 L 320 480 Z M 320 448 "/>
<path style=" stroke:none;fill-rule:nonzero;fill:rgb(48.627451%,48.627451%,48.627451%);fill-opacity:1;" d="M 224 480 L 256 480 L 256 512 L 224 512 Z M 224 480 "/>
<path style=" stroke:none;fill-rule:nonzero;fill:rgb(16.078432%,16.078432%,16.078432%);fill-opacity:1;" d="M 256 480 L 288 480 L 288 512 L 256 512 Z M 256 480 "/>
</g>
</svg>
